<?xml version="1.0" encoding="UTF-8" standalone="no"?>
<!DOCTYPE svg PUBLIC "-//W3C//DTD SVG 1.1//EN" "http://www.w3.org/Graphics/SVG/1.1/DTD/svg11.dtd">
<svg width="100%" height="100%" viewBox="0 0 16 16" version="1.1" xmlns="http://www.w3.org/2000/svg" xmlns:xlink="http://www.w3.org/1999/xlink" xml:space="preserve" xmlns:serif="http://www.serif.com/" style="fill-rule:evenodd;clip-rule:evenodd;stroke-linejoin:round;stroke-miterlimit:1.41421;">
    <g id="rect7849" transform="matrix(1,0,0,1,1.4e-07,-3.7e-05)">
        <path d="M10.984,1.006C9.331,1.006 7.984,2.353 7.984,4.006L7.984,6.006C7.984,6.967 8.447,7.814 9.152,8.363C7.264,9.147 5.909,11.147 5.846,13.492C5.846,13.497 5.846,13.501 5.846,13.506C5.846,13.779 6.07,14.005 6.344,14.006L15.496,14.021C15.497,14.021 15.497,14.021 15.498,14.021C15.772,14.021 15.998,13.796 15.998,13.521C15.998,13.518 15.998,13.514 15.998,13.51C15.942,11.201 14.632,9.212 12.771,8.4C13.503,7.853 13.984,6.988 13.984,6.006L13.984,4.006C13.984,2.353 12.638,1.006 10.984,1.006ZM10.984,2.006C12.101,2.006 12.984,2.889 12.984,4.006L12.984,6.006C12.984,7.123 12.101,8.006 10.984,8.006C9.868,8.006 8.984,7.123 8.984,6.006L8.984,4.006C8.984,2.889 9.868,2.006 10.984,2.006ZM4.467,4.006C3.09,4.006 1.967,5.13 1.967,6.506L1.967,7.506C1.967,8.24 2.294,8.893 2.801,9.352C1.191,10.028 0.058,11.63 0.002,13.479C0.002,13.484 0.002,13.489 0.002,13.494C0.002,13.768 0.226,13.993 0.5,13.994L4.455,14.004C4.458,14.004 4.46,14.004 4.463,14.004C4.737,14.004 4.963,13.778 4.963,13.504C4.963,13.23 4.737,13.004 4.463,13.004C4.461,13.004 4.459,13.004 4.457,13.004L1.117,12.994C1.417,11.278 2.816,9.951 4.602,10.004C4.679,10.01 4.756,9.998 4.828,9.969C6.033,9.792 6.967,8.759 6.967,7.506L6.967,6.506C6.967,5.13 5.843,4.006 4.467,4.006ZM4.467,5.006C5.306,5.006 5.967,5.666 5.967,6.506L5.967,7.506C5.967,8.346 5.306,9.006 4.467,9.006C3.627,9.006 2.967,8.346 2.967,7.506L2.967,6.506C2.967,5.666 3.627,5.006 4.467,5.006ZM11.043,9.01C13.018,9.078 14.615,10.785 14.896,13.02L6.951,13.008C7.25,10.674 8.977,8.939 11.043,9.01Z" style="fill:white;fill-rule:nonzero;"/>
    </g>
</svg>